<svg width="40" height="60" viewBox="0 0 40 60" fill="none" xmlns="http://www.w3.org/2000/svg">
<path fill-rule="evenodd" clip-rule="evenodd" d="M12.8947 15C13.7668 15 14.4737 15.7069 14.4737 16.5789C14.4737 18.6714 13.4433 20.6317 12.0375 22.0375C10.6317 23.4433 8.67142 24.4737 6.57895 24.4737C5.70692 24.4737 5 23.7668 5 22.8947C5 22.0227 5.70692 21.3158 6.57895 21.3158C7.64437 21.3158 8.84196 20.7672 9.80457 19.8046C10.7672 18.842 11.3158 17.6444 11.3158 16.5789C11.3158 15.7069 12.0227 15 12.8947 15ZM19.2105 15C20.0826 15 20.7895 15.7069 20.7895 16.5789C20.7895 20.2504 18.9697 23.7896 16.3796 26.3796C13.7896 28.9697 10.2504 30.7895 6.57895 30.7895C5.70692 30.7895 5 30.0826 5 29.2105C5 28.3385 5.70692 27.6316 6.57895 27.6316C9.22332 27.6316 11.9999 26.2935 14.1467 24.1467C16.2935 21.9999 17.6316 19.2233 17.6316 16.5789C17.6316 15.7069 18.3385 15 19.2105 15Z" fill="white"/>
<path d="M35 35.5263C35 40.7585 30.7585 45 25.5263 45C20.2941 45 16.0526 40.7585 16.0526 35.5263C16.0526 30.2941 20.2941 26.0526 25.5263 26.0526C30.7585 26.0526 35 30.2941 35 35.5263ZM19.3684 35.5263C19.3684 38.9272 22.1254 41.6842 25.5263 41.6842C28.9272 41.6842 31.6842 38.9272 31.6842 35.5263C31.6842 32.1254 28.9272 29.3684 25.5263 29.3684C22.1254 29.3684 19.3684 32.1254 19.3684 35.5263Z" fill="white"/>
</svg>
