<svg width="10" height="10" viewBox="0 0 10 10" fill="none" xmlns="http://www.w3.org/2000/svg">
<path fill-rule="evenodd" clip-rule="evenodd" d="M3 0.5C3.27614 0.5 3.5 0.723858 3.5 1C3.5 1.66262 3.17373 2.28338 2.72855 2.72855C2.28338 3.17373 1.66262 3.5 1 3.5C0.723858 3.5 0.5 3.27614 0.5 3C0.5 2.72386 0.723858 2.5 1 2.5C1.33738 2.5 1.71662 2.32627 2.02145 2.02145C2.32627 1.71662 2.5 1.33738 2.5 1C2.5 0.723858 2.72386 0.5 3 0.5ZM5 0.5C5.27614 0.5 5.5 0.723858 5.5 1C5.5 2.16262 4.92373 3.28338 4.10355 4.10355C3.28338 4.92373 2.16262 5.5 1 5.5C0.723858 5.5 0.5 5.27614 0.5 5C0.5 4.72386 0.723858 4.5 1 4.5C1.83738 4.5 2.71662 4.07627 3.39645 3.39645C4.07627 2.71662 4.5 1.83738 4.5 1C4.5 0.723858 4.72386 0.5 5 0.5Z" fill="white"/>
<path d="M8.7136 6.33333L8.81384 5.83333C8.88067 5.80556 8.94332 5.77639 9.00179 5.74583C9.06026 5.71528 9.12013 5.67778 9.18138 5.63333L9.66587 5.78333L10 5.21667L9.61575 4.88333C9.62689 4.81111 9.63246 4.73889 9.63246 4.66667C9.63246 4.59444 9.62689 4.52222 9.61575 4.45L10 4.11667L9.66587 3.55L9.18138 3.7C9.12013 3.65556 9.06026 3.61806 9.00179 3.5875C8.94332 3.55694 8.88067 3.52778 8.81384 3.5L8.7136 3H8.04535L7.94511 3.5C7.87828 3.52778 7.81563 3.55694 7.75716 3.5875C7.69869 3.61806 7.63882 3.65556 7.57757 3.7L7.09308 3.55L6.75895 4.11667L7.1432 4.45C7.13206 4.52222 7.12649 4.59444 7.12649 4.66667C7.12649 4.73889 7.13206 4.81111 7.1432 4.88333L6.75895 5.21667L7.09308 5.78333L7.57757 5.63333C7.63882 5.67778 7.69869 5.71528 7.75716 5.74583C7.81563 5.77639 7.87828 5.80556 7.94511 5.83333L8.04535 6.33333H8.7136ZM8.37948 5.33333C8.1957 5.33333 8.03839 5.26806 7.90752 5.1375C7.77665 5.00694 7.71122 4.85 7.71122 4.66667C7.71122 4.48333 7.77665 4.32639 7.90752 4.19583C8.03839 4.06528 8.1957 4 8.37948 4C8.56325 4 8.72056 4.06528 8.85143 4.19583C8.9823 4.32639 9.04773 4.48333 9.04773 4.66667C9.04773 4.85 8.9823 5.00694 8.85143 5.1375C8.72056 5.26806 8.56325 5.33333 8.37948 5.33333ZM5.72315 10L5.87351 9.3C5.96818 9.26667 6.05589 9.22639 6.13664 9.17917C6.21738 9.13194 6.29674 9.07778 6.3747 9.01667L7.04296 9.23333L7.51074 8.43333L6.97613 7.96667C6.98727 7.86667 6.99284 7.76667 6.99284 7.66667C6.99284 7.56667 6.98727 7.46667 6.97613 7.36667L7.51074 6.9L7.04296 6.1L6.3747 6.31667C6.29674 6.25556 6.21738 6.20139 6.13664 6.15417C6.05589 6.10694 5.96818 6.06667 5.87351 6.03333L5.72315 5.33333H4.78759L4.63723 6.03333C4.54256 6.06667 4.45485 6.10694 4.37411 6.15417C4.29336 6.20139 4.214 6.25556 4.13604 6.31667L3.46778 6.1L3 6.9L3.53461 7.36667C3.52347 7.46667 3.5179 7.56667 3.5179 7.66667C3.5179 7.76667 3.52347 7.86667 3.53461 7.96667L3 8.43333L3.46778 9.23333L4.13604 9.01667C4.214 9.07778 4.29336 9.13194 4.37411 9.17917C4.45485 9.22639 4.54256 9.26667 4.63723 9.3L4.78759 10H5.72315ZM5.25537 8.66667C4.97693 8.66667 4.74025 8.56944 4.54535 8.375C4.35044 8.18056 4.25298 7.94444 4.25298 7.66667C4.25298 7.38889 4.35044 7.15278 4.54535 6.95833C4.74025 6.76389 4.97693 6.66667 5.25537 6.66667C5.53381 6.66667 5.77049 6.76389 5.96539 6.95833C6.1603 7.15278 6.25776 7.38889 6.25776 7.66667C6.25776 7.94444 6.1603 8.18056 5.96539 8.375C5.77049 8.56944 5.53381 8.66667 5.25537 8.66667Z" fill="white"/>
</svg>
