<svg width="40" height="60" viewBox="0 0 40 60" fill="none" xmlns="http://www.w3.org/2000/svg">
<path fill-rule="evenodd" clip-rule="evenodd" d="M3.5 13C3.22386 13 3 13.2239 3 13.5V20.2778C3 20.5539 3.22386 20.7778 3.5 20.7778H37.5C37.7761 20.7778 38 20.5539 38 20.2778V13.5C38 13.2239 37.7761 13 37.5 13H3.5Z" fill="white"/>
<path fill-rule="evenodd" clip-rule="evenodd" d="M3.5 24.6667C3.22386 24.6667 3 24.8905 3 25.1667V31.9444C3 32.2206 3.22386 32.4444 3.5 32.4444H37.5C37.7761 32.4444 38 32.2206 38 31.9444V25.1667C38 24.8905 37.7761 24.6667 37.5 24.6667H3.5Z" fill="white"/>
<path fill-rule="evenodd" clip-rule="evenodd" d="M20.5 36.3333C21.5739 36.3333 22.4444 37.2039 22.4444 38.2778V46.0556C22.4444 47.1294 21.5739 48 20.5 48C19.4261 48 18.5556 47.1294 18.5556 46.0556V38.2778C18.5556 37.2039 19.4261 36.3333 20.5 36.3333Z" fill="white"/>
<path fill-rule="evenodd" clip-rule="evenodd" d="M14.6667 42.1667C14.6667 41.0928 15.5372 40.2222 16.6111 40.2222H24.3889C25.4628 40.2222 26.3333 41.0928 26.3333 42.1667C26.3333 43.2406 25.4628 44.1111 24.3889 44.1111H16.6111C15.5372 44.1111 14.6667 43.2406 14.6667 42.1667Z" fill="white"/>
</svg>
